<?xml version="1.0" encoding="utf-8"?>
<!-- Generator: Adobe Illustrator 26.0.2, SVG Export Plug-In . SVG Version: 6.00 Build 0)  -->
<svg version="1.1" id="Layer_1" xmlns="http://www.w3.org/2000/svg" xmlns:xlink="http://www.w3.org/1999/xlink" x="0px" y="0px"
	 width="130.4px" height="24.9px" viewBox="0 0 130.4 24.9" style="enable-background:new 0 0 130.4 24.9;" xml:space="preserve">
<style type="text/css">
	.st0{fill:url(#SVGID_1_);stroke:#009FFE;stroke-width:0.6;stroke-miterlimit:10;}
	.st1{fill:#FFFFFF;stroke:#009FFE;stroke-width:0.6;stroke-miterlimit:10;}
	
		.st2{fill:url(#SVGID_00000139988832099276337400000000936065333644383890_);stroke:#009FFE;stroke-width:0.6;stroke-miterlimit:10;}
	
		.st3{fill:url(#SVGID_00000057862666690387912080000014661011979150063276_);stroke:#009FFE;stroke-width:0.6;stroke-miterlimit:10;}
	
		.st4{fill:url(#SVGID_00000119088085096629129000000001863556734806889371_);stroke:#009FFE;stroke-width:0.6;stroke-miterlimit:10;}
	
		.st5{fill:url(#SVGID_00000023251046332748464250000006541005260154061470_);stroke:#009FFE;stroke-width:0.6;stroke-miterlimit:10;}
	
		.st6{fill:url(#SVGID_00000078017760801483588500000006669038161169890181_);stroke:#009FFE;stroke-width:0.6;stroke-miterlimit:10;}
	
		.st7{fill:url(#SVGID_00000091732338463278436460000004527749619794658705_);stroke:#009FFE;stroke-width:0.6;stroke-miterlimit:10;}
	
		.st8{fill:url(#SVGID_00000057866429767020755990000010211498154226077078_);stroke:#009FFE;stroke-width:0.6;stroke-miterlimit:10;}
	
		.st9{fill:url(#SVGID_00000141454881240571392130000005218542703971033515_);stroke:#009FFE;stroke-width:0.6;stroke-miterlimit:10;}
	
		.st10{fill:url(#SVGID_00000163792359853429740870000010511992832289770678_);stroke:#009FFE;stroke-width:0.6;stroke-miterlimit:10;}
	.st11{fill:url(#SVGID_00000023968142801578000430000001189092526417420440_);}
	.st12{fill:#FFFFFF;}
	.st13{fill:url(#SVGID_00000121972166300242420320000015690476031461579451_);}
	.st14{fill:url(#SVGID_00000145758510899970344270000017852044778464464811_);}
</style>
<g>
	
		<linearGradient id="SVGID_1_" gradientUnits="userSpaceOnUse" x1="22.1632" y1="376.2716" x2="29.8223" y2="376.2716" gradientTransform="matrix(1 0 0 1 0 -364)">
		<stop  offset="0" style="stop-color:#FFFFFF"/>
		<stop  offset="0" style="stop-color:#DEF3FF"/>
		<stop  offset="0" style="stop-color:#B0E2FF"/>
		<stop  offset="0" style="stop-color:#86D2FF"/>
		<stop  offset="0" style="stop-color:#62C4FF"/>
		<stop  offset="0" style="stop-color:#43B9FF"/>
		<stop  offset="0" style="stop-color:#2BB0FF"/>
		<stop  offset="0" style="stop-color:#17A9FF"/>
		<stop  offset="0" style="stop-color:#0AA4FF"/>
		<stop  offset="0" style="stop-color:#02A1FF"/>
		<stop  offset="0" style="stop-color:#00A0FF"/>
	</linearGradient>
	<path class="st0" d="M29.3,16.9C29.3,16.9,29.3,16.9,29.3,16.9h-6.5c0,0,0,0,0,0c-0.2,0-0.3-0.1-0.4-0.2c-0.1-0.1-0.2-0.3-0.2-0.5
		v-8c0-0.2,0.1-0.4,0.2-0.5c0.1-0.1,0.3-0.2,0.4-0.2c0,0,0,0,0,0h6.5c0,0,0,0,0,0c0.1,0,0.3,0.1,0.4,0.1c0.1,0.1,0.2,0.2,0.1,0.4v0
		v0c0,0.1-0.1,0.3-0.1,0.4c-0.1,0.1-0.2,0.1-0.4,0.1c0,0,0,0,0,0h-5.9v3h4.9c0.2,0,0.3,0,0.4,0.1c0.1,0.1,0.2,0.2,0.1,0.4v0v0
		c0,0.1,0,0.3-0.1,0.4c-0.1,0.1-0.2,0.1-0.4,0.1h-4.9v3.1l5.9,0c0,0,0,0,0,0c0.1,0,0.3,0.1,0.4,0.1c0.1,0.1,0.2,0.2,0.1,0.4v0v0
		c0,0.1,0,0.3-0.1,0.4C29.6,16.8,29.4,16.9,29.3,16.9z"/>
	<path class="st1" d="M29.3,7.7c0.1,0,0.2,0,0.3,0.1c0.1,0.1,0.1,0.2,0.1,0.3v0v0c0,0.1,0,0.2-0.1,0.3c-0.1,0.1-0.2,0.1-0.3,0.1
		c0,0,0,0,0,0h0h0h-5.8h-0.2v0.2v2.8v0.2h0.2h4.8c0.2,0,0.3,0,0.4,0.1c0.1,0.1,0.1,0.2,0.1,0.3v0v0c0,0.1,0,0.2-0.1,0.3
		c-0.1,0.1-0.2,0.1-0.4,0.1h-4.8h-0.2v0.2v2.9v0.2h0.2l5.8,0h0h0c0,0,0,0,0,0c0.1,0,0.2,0,0.3,0.1c0.1,0.1,0.1,0.2,0.1,0.3v0v0
		c0,0.1,0,0.2-0.1,0.3c-0.1,0.1-0.2,0.1-0.3,0.1c0,0,0,0,0,0h0h0h-6.4h0h0c0,0,0,0,0,0c-0.1,0-0.3-0.1-0.4-0.1
		c-0.1-0.1-0.1-0.2-0.1-0.4v-8c0-0.2,0-0.3,0.1-0.4c0.1-0.1,0.2-0.1,0.4-0.1c0,0,0,0,0,0h0h0H29.3L29.3,7.7L29.3,7.7
		C29.3,7.7,29.3,7.7,29.3,7.7 M29.3,7.6C29.3,7.6,29.3,7.6,29.3,7.6h-6.5c0,0,0,0,0,0c-0.2,0-0.4,0.1-0.5,0.2
		c-0.1,0.1-0.2,0.3-0.2,0.5v8c0,0.2,0.1,0.4,0.2,0.5c0.1,0.1,0.3,0.2,0.5,0.2c0,0,0,0,0,0h6.4c0,0,0,0,0,0c0.2,0,0.3-0.1,0.4-0.2
		c0.1-0.1,0.2-0.3,0.2-0.4c0-0.2-0.1-0.3-0.2-0.4c-0.1-0.1-0.3-0.2-0.4-0.2c0,0,0,0,0,0l-5.8,0v-2.9h4.8c0.2,0,0.4-0.1,0.5-0.2
		c0.1-0.1,0.2-0.3,0.2-0.5c0-0.2-0.1-0.3-0.2-0.4c-0.1-0.1-0.3-0.2-0.5-0.2h-4.8V8.8h5.8c0,0,0,0,0,0c0.2,0,0.3-0.1,0.4-0.2
		c0.1-0.1,0.2-0.3,0.2-0.4c0-0.2-0.1-0.3-0.2-0.4C29.6,7.6,29.4,7.6,29.3,7.6L29.3,7.6z"/>
</g>
<g>
	
		<linearGradient id="SVGID_00000076561312369496815950000015621915203948037038_" gradientUnits="userSpaceOnUse" x1="31.3347" y1="376.2716" x2="39.5833" y2="376.2716" gradientTransform="matrix(1 0 0 1 0 -364)">
		<stop  offset="0" style="stop-color:#FFFFFF"/>
		<stop  offset="0" style="stop-color:#DEF3FF"/>
		<stop  offset="0" style="stop-color:#B0E2FF"/>
		<stop  offset="0" style="stop-color:#86D2FF"/>
		<stop  offset="0" style="stop-color:#62C4FF"/>
		<stop  offset="0" style="stop-color:#43B9FF"/>
		<stop  offset="0" style="stop-color:#2BB0FF"/>
		<stop  offset="0" style="stop-color:#17A9FF"/>
		<stop  offset="0" style="stop-color:#0AA4FF"/>
		<stop  offset="0" style="stop-color:#02A1FF"/>
		<stop  offset="0" style="stop-color:#00A0FF"/>
	</linearGradient>
	
		<path style="fill:url(#SVGID_00000076561312369496815950000015621915203948037038_);stroke:#009FFE;stroke-width:0.6;stroke-miterlimit:10;" d="
		M31.9,17C31.9,17,31.9,17,31.9,17L31.9,17L31.9,17C31.9,17,31.9,17,31.9,17c-0.2,0-0.4-0.1-0.5-0.2c-0.1-0.1-0.2-0.3-0.1-0.4V8.3
		c0-0.2,0.1-0.4,0.2-0.5c0.1-0.1,0.3-0.2,0.4-0.2h0h0c0.1,0,0.3,0,0.4,0.1c0.1,0.1,0.2,0.1,0.3,0.2l5.6,7.1h0.2V8.2
		c0-0.2,0-0.3,0.1-0.5c0.1-0.1,0.2-0.2,0.4-0.2c0,0,0,0,0,0h0h0c0,0,0,0,0,0c0.1,0,0.3,0.1,0.4,0.2c0.1,0.1,0.2,0.3,0.1,0.4v8.1
		c0,0.2-0.1,0.4-0.2,0.5C39.3,16.9,39.1,17,39,17c0,0,0,0,0,0c-0.1,0-0.3,0-0.4-0.1c-0.1-0.1-0.2-0.1-0.3-0.2l-5.6-7.1h-0.2v6.8
		c0,0.2,0,0.3-0.1,0.5C32.2,16.9,32.1,17,31.9,17z"/>
	<path class="st1" d="M39,7.7L39,7.7C39,7.7,39,7.7,39,7.7L39,7.7L39,7.7C39,7.7,39,7.7,39,7.7c0.2,0,0.3,0.1,0.4,0.1
		c0.1,0.1,0.1,0.2,0.1,0.4v0v0v8.1c0,0.2-0.1,0.4-0.1,0.5c-0.1,0.1-0.2,0.2-0.4,0.2c0,0,0,0,0,0h0h0c-0.1,0-0.2,0-0.3-0.1
		c-0.1,0-0.2-0.1-0.3-0.2l0,0l0,0l-5.6-7l-0.1-0.1h-0.1h0h-0.2v0.2v6.7v0v0c0,0.1,0,0.3-0.1,0.4c-0.1,0.1-0.2,0.1-0.3,0.1
		c0,0,0,0,0,0h0h0c0,0,0,0,0,0c-0.1,0-0.2-0.1-0.3-0.1c-0.1-0.1-0.1-0.2-0.1-0.4v0v0V8.3c0-0.2,0.1-0.4,0.2-0.5
		c0.1-0.1,0.2-0.2,0.4-0.2c0,0,0,0,0,0h0h0h0c0.1,0,0.2,0,0.3,0.1c0.1,0,0.2,0.1,0.3,0.2l0,0l0,0l5.6,7l0.1,0.1h0.1h0h0.2v-0.2V8.2
		v0v0c0-0.1,0-0.3,0.1-0.4C38.7,7.7,38.9,7.7,39,7.7 M39,7.5c-0.2,0-0.3,0.1-0.4,0.2c-0.1,0.1-0.2,0.3-0.2,0.5v6.7h0l-5.6-7
		c-0.1-0.1-0.2-0.2-0.3-0.3c-0.1-0.1-0.3-0.1-0.4-0.1c0,0,0,0,0,0s0,0,0,0c-0.2,0-0.4,0.1-0.5,0.2c-0.1,0.1-0.2,0.3-0.2,0.6v8.1
		c0,0.2,0.1,0.4,0.2,0.5c0.1,0.1,0.3,0.2,0.5,0.2c0,0,0,0,0,0s0,0,0,0c0.2,0,0.3-0.1,0.4-0.2c0.1-0.1,0.2-0.3,0.2-0.5V9.7h0l5.6,7
		c0.1,0.1,0.2,0.2,0.4,0.3c0.1,0.1,0.3,0.1,0.4,0.1c0,0,0,0,0,0c0.2,0,0.4-0.1,0.5-0.2c0.1-0.1,0.2-0.3,0.2-0.6V8.2
		c0-0.2-0.1-0.4-0.2-0.5C39.4,7.6,39.2,7.5,39,7.5C39,7.5,39,7.5,39,7.5C39,7.5,39,7.5,39,7.5L39,7.5z"/>
</g>
<g>
	
		<linearGradient id="SVGID_00000071526792159820857250000000189015755938035387_" gradientUnits="userSpaceOnUse" x1="40.7205" y1="376.3164" x2="49.37" y2="376.3164" gradientTransform="matrix(1 0 0 1 0 -364)">
		<stop  offset="0" style="stop-color:#FFFFFF"/>
		<stop  offset="0" style="stop-color:#DEF3FF"/>
		<stop  offset="0" style="stop-color:#B0E2FF"/>
		<stop  offset="0" style="stop-color:#86D2FF"/>
		<stop  offset="0" style="stop-color:#62C4FF"/>
		<stop  offset="0" style="stop-color:#43B9FF"/>
		<stop  offset="0" style="stop-color:#2BB0FF"/>
		<stop  offset="0" style="stop-color:#17A9FF"/>
		<stop  offset="0" style="stop-color:#0AA4FF"/>
		<stop  offset="0" style="stop-color:#02A1FF"/>
		<stop  offset="0" style="stop-color:#00A0FF"/>
	</linearGradient>
	
		<path style="fill:url(#SVGID_00000071526792159820857250000000189015755938035387_);stroke:#009FFE;stroke-width:0.6;stroke-miterlimit:10;" d="
		M45.1,17c-0.2,0-0.3-0.1-0.4-0.2c-0.1-0.1-0.2-0.3-0.2-0.5V8.7h-3.2c0,0,0,0,0,0c-0.1,0-0.3-0.1-0.4-0.1c-0.1-0.1-0.2-0.2-0.1-0.4
		v0v0c0-0.1,0-0.3,0.1-0.4c0.1-0.1,0.2-0.1,0.4-0.1c0,0,0,0,0,0h7.5c0,0,0,0,0,0c0.1,0,0.3,0.1,0.4,0.1c0.1,0.1,0.1,0.2,0.1,0.4v0v0
		c0,0.1-0.1,0.3-0.1,0.4c-0.1,0.1-0.2,0.1-0.4,0.1c0,0,0,0,0,0h-3.2v7.6c0,0.2,0,0.4-0.1,0.5C45.4,16.9,45.2,17,45.1,17z"/>
	<path class="st1" d="M48.8,7.7c0.1,0,0.2,0,0.3,0.1c0.1,0.1,0.1,0.2,0.1,0.3v0v0c0,0.1,0,0.2-0.1,0.3c-0.1,0.1-0.2,0.1-0.3,0.1
		c0,0,0,0,0,0h0h0h-3.1h-0.2v0.2v7.6c0,0.2,0,0.3-0.1,0.4c-0.1,0.1-0.2,0.1-0.4,0.1c-0.2,0-0.3,0-0.4-0.1c-0.1-0.1-0.1-0.2-0.1-0.4
		V8.8V8.6h-0.2h-3.1h0h0c0,0,0,0,0,0c-0.1,0-0.2,0-0.3-0.1c-0.1-0.1-0.1-0.2-0.1-0.3v0v0c0-0.1,0-0.2,0.1-0.3
		c0.1-0.1,0.2-0.1,0.3-0.1c0,0,0,0,0,0h0h0L48.8,7.7L48.8,7.7L48.8,7.7C48.8,7.7,48.8,7.7,48.8,7.7 M48.8,7.6
		C48.8,7.6,48.8,7.6,48.8,7.6h-7.6c0,0,0,0,0,0c-0.2,0-0.3,0.1-0.4,0.2c-0.1,0.1-0.2,0.3-0.2,0.4c0,0.2,0.1,0.3,0.2,0.4
		c0.1,0.1,0.3,0.2,0.4,0.2c0,0,0,0,0,0h3.1v7.6c0,0.2,0.1,0.4,0.2,0.5c0.1,0.1,0.3,0.2,0.5,0.2c0.2,0,0.4-0.1,0.5-0.2
		s0.2-0.3,0.2-0.5V8.8h3.1c0,0,0,0,0,0c0.2,0,0.3-0.1,0.4-0.2c0.1-0.1,0.2-0.3,0.2-0.4c0-0.2-0.1-0.3-0.2-0.4
		C49.2,7.6,49,7.6,48.8,7.6L48.8,7.6z"/>
</g>
<g>
	
		<linearGradient id="SVGID_00000116232977335949090590000005568352592571407785_" gradientUnits="userSpaceOnUse" x1="50.1501" y1="376.2716" x2="59.7382" y2="376.2716" gradientTransform="matrix(1 0 0 1 0 -364)">
		<stop  offset="0" style="stop-color:#FFFFFF"/>
		<stop  offset="0" style="stop-color:#DEF3FF"/>
		<stop  offset="0" style="stop-color:#B0E2FF"/>
		<stop  offset="0" style="stop-color:#86D2FF"/>
		<stop  offset="0" style="stop-color:#62C4FF"/>
		<stop  offset="0" style="stop-color:#43B9FF"/>
		<stop  offset="0" style="stop-color:#2BB0FF"/>
		<stop  offset="0" style="stop-color:#17A9FF"/>
		<stop  offset="0" style="stop-color:#0AA4FF"/>
		<stop  offset="0" style="stop-color:#02A1FF"/>
		<stop  offset="0" style="stop-color:#00A0FF"/>
	</linearGradient>
	
		<path style="fill:url(#SVGID_00000116232977335949090590000005568352592571407785_);stroke:#009FFE;stroke-width:0.6;stroke-miterlimit:10;" d="
		M55,17.1c-0.7,0-1.3-0.1-2-0.3c-0.6-0.2-1.1-0.5-1.5-1c-0.4-0.4-0.8-0.9-1-1.5c-0.2-0.6-0.4-1.3-0.4-1.9c0-0.7,0.1-1.3,0.4-1.9
		c0.2-0.6,0.6-1.1,1-1.5c0.4-0.4,0.9-0.8,1.5-1c0.6-0.2,1.3-0.4,1.9-0.4c0.7,0,1.3,0.1,2,0.4c1.1,0.4,2,1.3,2.5,2.5
		c0.5,1.3,0.5,2.6,0,3.9c-0.2,0.6-0.6,1.1-1,1.5c-0.4,0.4-0.9,0.8-1.5,1C56.3,16.9,55.6,17.1,55,17.1z M51.3,12.3
		c0,0.5,0.1,1,0.3,1.5c0.2,0.4,0.4,0.8,0.7,1.2c0.3,0.3,0.7,0.6,1.1,0.8c0.5,0.2,1,0.3,1.5,0.3c0.5,0,1-0.1,1.5-0.3
		c0.4-0.2,0.8-0.4,1.1-0.8c0.3-0.3,0.6-0.7,0.7-1.2c0.4-1,0.4-2.1,0-3c-0.2-0.4-0.4-0.8-0.7-1.2c-0.3-0.3-0.7-0.6-1.1-0.8
		c-0.5-0.2-1-0.3-1.5-0.3c-0.5,0-1,0.1-1.5,0.3c-0.4,0.2-0.8,0.4-1.1,0.8c-0.3,0.3-0.6,0.7-0.7,1.2C51.4,11.2,51.3,11.7,51.3,12.3
		L51.3,12.3z"/>
	<path class="st1" d="M55,7.6c0.7,0,1.3,0.1,1.9,0.3c1.1,0.4,2,1.3,2.4,2.4c0.5,1.2,0.5,2.6,0,3.8c-0.2,0.6-0.5,1.1-1,1.5
		s-0.9,0.7-1.5,1C56.3,16.8,55.6,17,55,17s-1.3-0.1-1.9-0.3c-0.6-0.2-1.1-0.5-1.5-1c-0.4-0.4-0.7-0.9-1-1.5
		c-0.2-0.6-0.4-1.3-0.3-1.9l0,0l0,0c0-0.7,0.1-1.3,0.3-1.9c0.2-0.6,0.5-1,1-1.5c0.4-0.4,0.9-0.7,1.5-1C53.7,7.7,54.3,7.6,55,7.6
		 M51.3,12.1L51.3,12.1v0.2c0,0.5,0.1,1,0.3,1.5c0.2,0.5,0.4,0.9,0.8,1.2c0.3,0.3,0.7,0.6,1.2,0.8c0.5,0.2,1,0.3,1.5,0.3
		c0.5,0,1-0.1,1.5-0.3c0.4-0.2,0.8-0.4,1.2-0.8c0.3-0.4,0.6-0.8,0.8-1.2c0.4-1,0.4-2.1,0-3.1c-0.2-0.5-0.4-0.9-0.8-1.2
		c-0.3-0.3-0.7-0.6-1.2-0.8c-0.5-0.2-1-0.3-1.5-0.3c-0.5,0-1,0.1-1.5,0.3c-0.4,0.2-0.8,0.4-1.2,0.8c-0.3,0.4-0.6,0.8-0.8,1.2
		C51.4,11.2,51.3,11.6,51.3,12.1 M55,7.4c-0.7,0-1.3,0.1-2,0.4c-0.6,0.2-1.1,0.6-1.5,1c-0.4,0.4-0.8,1-1,1.5c-0.2,0.6-0.4,1.3-0.4,2
		c0,0.7,0.1,1.4,0.4,2c0.2,0.6,0.6,1.1,1,1.5c0.4,0.4,1,0.8,1.5,1c0.6,0.2,1.3,0.4,2,0.4c0.7,0,1.3-0.1,2-0.4c0.6-0.2,1.1-0.6,1.5-1
		s0.8-1,1-1.5c0.5-1.3,0.5-2.7,0-4c-0.4-1.2-1.4-2.1-2.5-2.5C56.3,7.5,55.6,7.4,55,7.4L55,7.4z M55,15.9c-0.5,0-1-0.1-1.4-0.3
		c-0.4-0.2-0.8-0.4-1.1-0.7c-0.3-0.3-0.6-0.7-0.7-1.2c-0.2-0.5-0.3-1-0.3-1.5l0,0c0-0.5,0.1-1,0.3-1.5c0.2-0.4,0.4-0.8,0.7-1.2
		c0.3-0.3,0.7-0.6,1.1-0.7c0.5-0.2,0.9-0.3,1.4-0.3s1,0.1,1.4,0.3c0.4,0.2,0.8,0.4,1.1,0.8c0.3,0.3,0.6,0.7,0.7,1.2c0.3,1,0.3,2,0,3
		c-0.2,0.4-0.4,0.8-0.7,1.2c-0.3,0.3-0.7,0.6-1.1,0.7C55.9,15.8,55.4,15.9,55,15.9L55,15.9z"/>
</g>
<g>
	
		<linearGradient id="SVGID_00000036235603277782116670000016714378479771337894_" gradientUnits="userSpaceOnUse" x1="60.9625" y1="376.2716" x2="69.0163" y2="376.2716" gradientTransform="matrix(1 0 0 1 0 -364)">
		<stop  offset="0" style="stop-color:#FFFFFF"/>
		<stop  offset="0" style="stop-color:#DEF3FF"/>
		<stop  offset="0" style="stop-color:#B0E2FF"/>
		<stop  offset="0" style="stop-color:#86D2FF"/>
		<stop  offset="0" style="stop-color:#62C4FF"/>
		<stop  offset="0" style="stop-color:#43B9FF"/>
		<stop  offset="0" style="stop-color:#2BB0FF"/>
		<stop  offset="0" style="stop-color:#17A9FF"/>
		<stop  offset="0" style="stop-color:#0AA4FF"/>
		<stop  offset="0" style="stop-color:#02A1FF"/>
		<stop  offset="0" style="stop-color:#00A0FF"/>
	</linearGradient>
	
		<path style="fill:url(#SVGID_00000036235603277782116670000016714378479771337894_);stroke:#009FFE;stroke-width:0.6;stroke-miterlimit:10;" d="
		M65.1,17.1c-0.9,0-1.7-0.1-2.4-0.4c-0.7-0.2-1.2-0.6-1.6-1.1c0-0.1-0.1-0.1-0.1-0.2c0-0.1,0-0.2,0-0.2c0-0.1,0.1-0.3,0.2-0.4
		c0.1-0.1,0.2-0.2,0.4-0.2h0c0,0,0,0,0,0c0.1,0,0.2,0,0.2,0.1c0.1,0,0.1,0.1,0.2,0.1c0.4,0.4,0.8,0.7,1.4,0.9
		c0.5,0.2,1.2,0.3,1.9,0.3c0.8,0,1.5-0.2,2-0.5c0.5-0.3,0.7-0.8,0.7-1.3c0-0.2,0-0.4-0.1-0.6c-0.1-0.2-0.3-0.4-0.5-0.5
		c-0.3-0.1-0.6-0.2-0.9-0.3c-0.5-0.1-0.9-0.1-1.4-0.1h0c-0.6,0-1.2-0.1-1.8-0.2c-0.5-0.1-0.9-0.2-1.2-0.4c-0.3-0.2-0.5-0.4-0.6-0.7
		c-0.1-0.3-0.2-0.7-0.2-1.1c0-0.4,0.1-0.8,0.3-1.2c0.2-0.4,0.4-0.7,0.8-0.9c0.4-0.3,0.8-0.5,1.2-0.6c0.5-0.1,1-0.2,1.6-0.2
		c0,0,0,0,0.1,0c0.8,0,1.4,0.1,2,0.3c0.5,0.2,1,0.5,1.4,0.9c0.1,0.1,0.2,0.3,0.2,0.4c0,0.2-0.1,0.3-0.2,0.4
		c-0.1,0.1-0.2,0.2-0.4,0.2h0c-0.1,0-0.2,0-0.2-0.1c-0.1,0-0.1-0.1-0.2-0.1c-0.7-0.6-1.5-1-2.7-1c-0.8,0-1.4,0.2-1.9,0.5
		c-0.5,0.3-0.7,0.8-0.7,1.3c0,0.2,0,0.4,0.1,0.6c0.1,0.2,0.3,0.3,0.5,0.4c0.3,0.1,0.6,0.2,0.9,0.2c0.4,0,0.8,0.1,1.2,0.1
		c0,0,0.1,0,0.1,0h0c0.6,0,1.2,0.1,1.9,0.2c0.5,0.1,0.9,0.3,1.2,0.5c0.3,0.2,0.5,0.5,0.6,0.8c0.1,0.4,0.2,0.8,0.2,1.2
		c0,0.9-0.3,1.6-1,2.1C67.3,16.8,66.3,17.1,65.1,17.1z"/>
	<path class="st1" d="M64.9,7.6C65,7.6,65,7.6,64.9,7.6c0.8,0,1.5,0.1,2.1,0.3c0.5,0.2,1,0.5,1.4,0.9c0.1,0.1,0.1,0.2,0.1,0.4v0v0
		c0,0.1,0,0.2-0.1,0.3c-0.1,0.1-0.2,0.1-0.3,0.1h0l0,0l0,0h0c-0.1,0-0.1,0-0.2,0c-0.1,0-0.1-0.1-0.2-0.1c-0.7-0.6-1.6-1-2.7-1
		c-0.8,0-1.5,0.2-2,0.5c-0.5,0.3-0.8,0.8-0.8,1.4c0,0.2,0,0.4,0.2,0.6v0v0c0.1,0.2,0.3,0.4,0.5,0.4c0.3,0.1,0.6,0.2,0.9,0.2
		c0.4,0,0.8,0.1,1.2,0.1c0,0,0.1,0,0.1,0h0c0.6,0,1.2,0.1,1.9,0.2c0.5,0.1,0.9,0.2,1.2,0.4c0.3,0.2,0.5,0.4,0.6,0.7
		c0.1,0.4,0.2,0.7,0.2,1.1l0,0l0,0c0,0.9-0.3,1.5-1,2C67.2,16.7,66.3,17,65,17c-0.9,0-1.7-0.1-2.4-0.4c-0.6-0.2-1.2-0.6-1.5-1l0,0
		l0,0c0,0-0.1-0.1-0.1-0.1c0-0.1,0-0.1,0-0.2l0,0l0,0c0-0.1,0-0.2,0.1-0.3c0.1-0.1,0.2-0.1,0.3-0.1c0,0,0,0,0,0h0h0c0,0,0,0,0,0
		c0.1,0,0.1,0,0.2,0c0.1,0,0.1,0.1,0.1,0.1l0,0l0,0c0.4,0.4,0.9,0.7,1.4,0.9c0.6,0.2,1.2,0.3,1.9,0.3h0c0.8,0,1.5-0.2,2-0.5
		c0.5-0.3,0.8-0.8,0.8-1.4c0-0.2,0-0.5-0.2-0.7v0v0c-0.1-0.2-0.3-0.4-0.5-0.5c-0.3-0.1-0.6-0.2-0.9-0.3c-0.5-0.1-0.9-0.1-1.4-0.1h0
		c-0.6,0-1.2-0.1-1.8-0.2c-0.5-0.1-0.9-0.2-1.1-0.4c-0.3-0.2-0.5-0.4-0.6-0.7c-0.1-0.3-0.2-0.7-0.2-1v0v0c0-0.4,0.1-0.8,0.3-1.1
		c0.2-0.3,0.4-0.6,0.7-0.9c0.4-0.3,0.8-0.5,1.2-0.6C63.9,7.6,64.4,7.6,64.9,7.6 M64.9,7.4c-0.5,0-1.1,0.1-1.6,0.2
		c-0.5,0.1-0.9,0.3-1.3,0.6c-0.3,0.2-0.6,0.6-0.8,0.9C61.1,9.5,61,9.9,61,10.4c0,0.4,0.1,0.8,0.2,1.1c0.1,0.3,0.4,0.6,0.7,0.8
		c0.3,0.2,0.7,0.4,1.2,0.5c0.6,0.1,1.2,0.2,1.8,0.2c0,0,0,0,0,0c0.5,0,0.9,0,1.4,0.1c0.3,0,0.6,0.1,0.9,0.2c0.2,0.1,0.4,0.2,0.5,0.4
		c0.1,0.2,0.1,0.4,0.1,0.6c0,0.5-0.2,1-0.7,1.3c-0.5,0.3-1.1,0.5-1.9,0.5c0,0,0,0,0,0c-0.7,0-1.3-0.1-1.8-0.3
		c-0.5-0.2-1-0.5-1.3-0.9c-0.1-0.1-0.1-0.1-0.2-0.1c-0.1,0-0.2-0.1-0.3-0.1c0,0,0,0,0,0c0,0,0,0,0,0c-0.2,0-0.3,0.1-0.4,0.2
		c-0.1,0.1-0.2,0.3-0.2,0.5c0,0.1,0,0.2,0,0.3c0,0.1,0.1,0.1,0.1,0.2c0.4,0.5,0.9,0.9,1.6,1.1c0.7,0.2,1.5,0.4,2.4,0.4
		c1.3,0,2.3-0.3,3-0.8c0.7-0.5,1.1-1.2,1.1-2.2c0-0.4-0.1-0.8-0.2-1.2c-0.1-0.3-0.4-0.6-0.7-0.8c-0.3-0.2-0.7-0.4-1.2-0.5
		c-0.6-0.1-1.2-0.2-1.9-0.2c0,0,0,0,0,0c0,0-0.1,0-0.1,0c-0.4,0-0.8,0-1.2-0.1c-0.3,0-0.6-0.1-0.8-0.2c-0.2-0.1-0.3-0.2-0.4-0.4
		c-0.1-0.2-0.1-0.4-0.1-0.6c0-0.5,0.2-0.9,0.7-1.2c0.5-0.3,1.1-0.5,1.9-0.5c1.1,0,2,0.3,2.6,0.9c0.1,0.1,0.1,0.1,0.2,0.2
		c0.1,0,0.2,0.1,0.3,0.1c0,0,0,0,0,0c0,0,0,0,0,0c0.2,0,0.3-0.1,0.4-0.2c0.1-0.1,0.2-0.3,0.2-0.5c0-0.2-0.1-0.4-0.2-0.5
		c-0.4-0.4-0.9-0.7-1.5-0.9C66.5,7.5,65.8,7.4,64.9,7.4C65,7.4,65,7.4,64.9,7.4L64.9,7.4z"/>
</g>
<g>
	
		<linearGradient id="SVGID_00000047043778589358917370000014969817706189042065_" gradientUnits="userSpaceOnUse" x1="70.4425" y1="376.23" x2="78.797" y2="376.23" gradientTransform="matrix(1 0 0 1 0 -364)">
		<stop  offset="0" style="stop-color:#FFFFFF"/>
		<stop  offset="0" style="stop-color:#DEF3FF"/>
		<stop  offset="0" style="stop-color:#B0E2FF"/>
		<stop  offset="0" style="stop-color:#86D2FF"/>
		<stop  offset="0" style="stop-color:#62C4FF"/>
		<stop  offset="0" style="stop-color:#43B9FF"/>
		<stop  offset="0" style="stop-color:#2BB0FF"/>
		<stop  offset="0" style="stop-color:#17A9FF"/>
		<stop  offset="0" style="stop-color:#0AA4FF"/>
		<stop  offset="0" style="stop-color:#02A1FF"/>
		<stop  offset="0" style="stop-color:#00A0FF"/>
	</linearGradient>
	
		<path style="fill:url(#SVGID_00000047043778589358917370000014969817706189042065_);stroke:#009FFE;stroke-width:0.6;stroke-miterlimit:10;" d="
		M71,17c-0.1,0-0.3-0.1-0.4-0.2c-0.1-0.1-0.2-0.3-0.1-0.4v-4.5c0-1.4,0.4-2.5,1.1-3.2c0.7-0.7,1.8-1.1,3.1-1.1
		c1.4,0,2.4,0.4,3.1,1.1c0.7,0.7,1.1,1.8,1.1,3.2v4.5c0,0.2-0.1,0.4-0.1,0.5c-0.1,0.1-0.2,0.2-0.4,0.2c-0.2,0-0.3-0.1-0.4-0.2
		c-0.1-0.1-0.2-0.3-0.2-0.5V14h-6.1v2.3c0,0.2,0,0.3-0.1,0.5C71.3,16.9,71.2,17,71,17C71,17,71,17,71,17z M74.6,8.5
		c-1,0-1.7,0.3-2.3,0.8c-0.5,0.5-0.8,1.4-0.8,2.4V13h6.1v-1.2c0-1.1-0.3-1.9-0.8-2.4C76.4,8.8,75.6,8.5,74.6,8.5L74.6,8.5z"/>
	<path class="st1" d="M74.6,7.6c1.3,0,2.3,0.4,3,1.1c0.7,0.7,1,1.8,1,3.2v4.5c0,0.2,0,0.3-0.1,0.4c-0.1,0.1-0.2,0.1-0.4,0.1
		c-0.2,0-0.3,0-0.4-0.1c-0.1-0.1-0.1-0.2-0.1-0.4v-2.2v-0.2h-0.2h-5.9h-0.2v0.2v2.2v0v0c0,0.1,0,0.3-0.1,0.4
		c-0.1,0.1-0.2,0.1-0.4,0.1h0h0c0,0,0,0,0,0c-0.1,0-0.2,0-0.3-0.1c-0.1-0.1-0.1-0.2-0.1-0.4v0v0v-4.5c0-1.4,0.4-2.5,1.1-3.2
		C72.3,7.9,73.3,7.6,74.6,7.6L74.6,7.6 M71.5,13.1h0.2h5.9h0.2v-0.2v-1.1c0-1.1-0.3-1.9-0.8-2.5c-0.5-0.6-1.3-0.8-2.3-0.8
		s-1.8,0.3-2.3,0.8c-0.5,0.6-0.8,1.4-0.8,2.5v1.1V13.1 M74.6,7.4c-1.4,0-2.4,0.4-3.2,1.1s-1.1,1.9-1.1,3.3v4.5
		c0,0.2,0.1,0.4,0.2,0.5c0.1,0.1,0.3,0.2,0.4,0.2c0,0,0,0,0,0c0.2,0,0.4-0.1,0.5-0.2c0.1-0.1,0.2-0.3,0.2-0.5v-2.2h5.9v2.2
		c0,0.2,0.1,0.4,0.2,0.5s0.3,0.2,0.5,0.2s0.4-0.1,0.5-0.2s0.2-0.3,0.2-0.5v-4.5c0-1.4-0.4-2.5-1.1-3.3S76,7.4,74.6,7.4L74.6,7.4
		L74.6,7.4z M71.7,12.9v-1.1c0-1,0.2-1.8,0.8-2.4c0.5-0.5,1.2-0.8,2.2-0.8l0,0c1,0,1.7,0.3,2.2,0.8c0.5,0.5,0.7,1.3,0.7,2.4v1.1
		H71.7L71.7,12.9z"/>
</g>
<g>
	
		<linearGradient id="SVGID_00000041277479485483139300000008100139031766071988_" gradientUnits="userSpaceOnUse" x1="83.1111" y1="376.3164" x2="91.7682" y2="376.3164" gradientTransform="matrix(1 0 0 1 0 -364)">
		<stop  offset="0" style="stop-color:#FFFFFF"/>
		<stop  offset="0" style="stop-color:#DEF3FF"/>
		<stop  offset="0" style="stop-color:#B0E2FF"/>
		<stop  offset="0" style="stop-color:#86D2FF"/>
		<stop  offset="0" style="stop-color:#62C4FF"/>
		<stop  offset="0" style="stop-color:#43B9FF"/>
		<stop  offset="0" style="stop-color:#2BB0FF"/>
		<stop  offset="0" style="stop-color:#17A9FF"/>
		<stop  offset="0" style="stop-color:#0AA4FF"/>
		<stop  offset="0" style="stop-color:#02A1FF"/>
		<stop  offset="0" style="stop-color:#00A0FF"/>
	</linearGradient>
	
		<path style="fill:url(#SVGID_00000041277479485483139300000008100139031766071988_);stroke:#009FFE;stroke-width:0.6;stroke-miterlimit:10;" d="
		M87.4,17c-0.2,0-0.3-0.1-0.4-0.2c-0.1-0.1-0.2-0.3-0.2-0.5V8.7h-3.2c0,0,0,0,0,0c-0.1,0-0.3-0.1-0.4-0.1c-0.1-0.1-0.2-0.2-0.1-0.4
		v0v0c0-0.1,0-0.3,0.1-0.4c0.1-0.1,0.2-0.1,0.4-0.1c0,0,0,0,0,0h7.5c0,0,0,0,0,0c0.1,0,0.3,0.1,0.4,0.1c0.1,0.1,0.2,0.2,0.1,0.4v0v0
		c0,0.1-0.1,0.3-0.1,0.4c-0.1,0.1-0.2,0.1-0.4,0.1c0,0,0,0,0,0H88v7.6c0,0.2-0.1,0.4-0.1,0.5C87.8,16.9,87.6,17,87.4,17z"/>
	<path class="st1" d="M91.2,7.7c0.1,0,0.2,0,0.3,0.1c0.1,0.1,0.1,0.2,0.1,0.3v0v0c0,0.1,0,0.2-0.1,0.3c-0.1,0.1-0.2,0.1-0.3,0.1
		c0,0,0,0,0,0h0h0h-3.1h-0.2v0.2v7.6c0,0.2,0,0.3-0.1,0.4c-0.1,0.1-0.2,0.1-0.4,0.1c-0.2,0-0.3,0-0.4-0.1C87,16.7,87,16.5,87,16.3
		V8.8V8.6h-0.2h-3.1h0h0c0,0,0,0,0,0c-0.1,0-0.2,0-0.3-0.1c-0.1-0.1-0.1-0.2-0.1-0.3v0v0c0-0.1,0-0.2,0.1-0.3
		c0.1-0.1,0.2-0.1,0.3-0.1c0,0,0,0,0,0h0h0L91.2,7.7L91.2,7.7L91.2,7.7C91.2,7.7,91.2,7.7,91.2,7.7 M91.2,7.6
		C91.2,7.6,91.2,7.6,91.2,7.6h-7.6c0,0,0,0,0,0c-0.2,0-0.3,0.1-0.4,0.2C83.1,7.8,83,8,83,8.2c0,0.2,0.1,0.3,0.2,0.4
		c0.1,0.1,0.3,0.2,0.4,0.2c0,0,0,0,0,0h3.1v7.6c0,0.2,0.1,0.4,0.2,0.5c0.1,0.1,0.3,0.2,0.5,0.2s0.4-0.1,0.5-0.2s0.2-0.3,0.2-0.5V8.8
		h3.1c0,0,0,0,0,0c0.2,0,0.3-0.1,0.4-0.2c0.1-0.1,0.2-0.3,0.2-0.4c0-0.2-0.1-0.3-0.2-0.4C91.6,7.6,91.4,7.6,91.2,7.6L91.2,7.6z"/>
</g>
<g>
	
		<linearGradient id="SVGID_00000069397253950481282020000011481593071064979102_" gradientUnits="userSpaceOnUse" x1="92.5407" y1="376.2684" x2="102.1288" y2="376.2684" gradientTransform="matrix(1 0 0 1 0 -364)">
		<stop  offset="0" style="stop-color:#FFFFFF"/>
		<stop  offset="0" style="stop-color:#DEF3FF"/>
		<stop  offset="0" style="stop-color:#B0E2FF"/>
		<stop  offset="0" style="stop-color:#86D2FF"/>
		<stop  offset="0" style="stop-color:#62C4FF"/>
		<stop  offset="0" style="stop-color:#43B9FF"/>
		<stop  offset="0" style="stop-color:#2BB0FF"/>
		<stop  offset="0" style="stop-color:#17A9FF"/>
		<stop  offset="0" style="stop-color:#0AA4FF"/>
		<stop  offset="0" style="stop-color:#02A1FF"/>
		<stop  offset="0" style="stop-color:#00A0FF"/>
	</linearGradient>
	
		<path style="fill:url(#SVGID_00000069397253950481282020000011481593071064979102_);stroke:#009FFE;stroke-width:0.6;stroke-miterlimit:10;" d="
		M97.3,17.1c-0.7,0-1.3-0.1-2-0.3c-0.6-0.2-1.1-0.5-1.5-1c-0.4-0.4-0.8-0.9-1-1.5c-0.2-0.6-0.4-1.3-0.4-1.9c0-0.7,0.1-1.3,0.4-2
		c0.2-0.6,0.6-1.1,1-1.5c0.4-0.4,0.9-0.8,1.5-1c0.6-0.2,1.3-0.4,1.9-0.4c0.7,0,1.3,0.1,2,0.4c1.1,0.4,2,1.3,2.5,2.5
		c0.5,1.3,0.5,2.6,0,3.9c-0.2,0.6-0.6,1.1-1,1.5c-0.4,0.4-0.9,0.8-1.5,1C98.7,16.9,98,17.1,97.3,17.1z M97.3,8.5
		c-0.5,0-1,0.1-1.5,0.3c-0.4,0.2-0.8,0.4-1.1,0.8c-0.3,0.3-0.6,0.7-0.7,1.2c-0.2,0.5-0.3,1-0.3,1.5c0,0.5,0.1,1,0.3,1.5
		c0.2,0.4,0.4,0.8,0.7,1.2c0.3,0.3,0.7,0.6,1.1,0.8c0.5,0.2,1,0.3,1.5,0.3c0.5,0,1-0.1,1.5-0.3c0.4-0.2,0.8-0.4,1.1-0.8
		c0.3-0.3,0.6-0.7,0.7-1.2c0.4-1,0.4-2.1,0-3c-0.2-0.4-0.4-0.8-0.7-1.2c-0.3-0.3-0.7-0.6-1.1-0.8C98.3,8.6,97.8,8.5,97.3,8.5z"/>
	<path class="st1" d="M97.3,7.6c0.7,0,1.3,0.1,1.9,0.3c1.1,0.4,2,1.3,2.4,2.4c0.5,1.2,0.5,2.6,0,3.8c-0.2,0.6-0.5,1.1-1,1.5
		c-0.4,0.4-0.9,0.7-1.5,1C98.7,16.8,98,17,97.3,17s-1.3-0.1-1.9-0.3c-0.6-0.2-1.1-0.5-1.5-1c-0.4-0.4-0.7-0.9-1-1.5
		c-0.2-0.6-0.4-1.3-0.3-1.9l0,0l0,0c0-0.7,0.1-1.3,0.3-1.9c0.2-0.6,0.5-1,1-1.5c0.4-0.4,0.9-0.7,1.5-1C96,7.7,96.7,7.6,97.3,7.6
		 M93.6,12.3c0,0.5,0.1,1,0.3,1.5c0.2,0.5,0.4,0.9,0.8,1.2c0.3,0.3,0.7,0.6,1.2,0.8c0.5,0.2,1,0.3,1.5,0.3c0.5,0,1-0.1,1.5-0.3
		c0.4-0.2,0.8-0.4,1.2-0.8c0.3-0.4,0.6-0.8,0.8-1.2c0.4-1,0.4-2.1,0-3.1c-0.2-0.5-0.4-0.9-0.8-1.2c-0.3-0.3-0.7-0.6-1.2-0.8
		c-0.5-0.2-1-0.3-1.5-0.3c-0.5,0-1,0.1-1.5,0.3c-0.4,0.2-0.8,0.4-1.2,0.8c-0.3,0.4-0.6,0.8-0.8,1.2C93.7,11.2,93.6,11.7,93.6,12.3
		 M97.3,7.4c-0.7,0-1.3,0.1-2,0.4c-0.6,0.2-1.1,0.6-1.5,1c-0.4,0.4-0.8,1-1,1.5c-0.2,0.6-0.4,1.3-0.4,2c0,0.7,0.1,1.4,0.4,2
		c0.2,0.6,0.6,1.1,1,1.5c0.4,0.4,1,0.8,1.5,1c0.6,0.2,1.3,0.4,2,0.4s1.3-0.1,2-0.4c0.6-0.2,1.1-0.6,1.5-1s0.8-1,1-1.5
		c0.5-1.3,0.5-2.7,0-4c-0.4-1.2-1.4-2.1-2.5-2.5C98.7,7.5,98,7.4,97.3,7.4L97.3,7.4z M97.3,15.9c-0.5,0-1-0.1-1.4-0.3
		c-0.4-0.2-0.8-0.4-1.1-0.7c-0.3-0.3-0.6-0.7-0.7-1.2c-0.2-0.5-0.3-1-0.3-1.5c0-0.5,0.1-1,0.3-1.5c0.2-0.4,0.4-0.8,0.7-1.2
		c0.3-0.3,0.7-0.6,1.1-0.7c0.5-0.2,0.9-0.3,1.4-0.3s1,0.1,1.4,0.3c0.4,0.2,0.8,0.4,1.1,0.8c0.3,0.3,0.6,0.7,0.7,1.2c0.3,1,0.3,2,0,3
		c-0.2,0.4-0.4,0.8-0.7,1.2c-0.3,0.3-0.7,0.6-1.1,0.7C98.3,15.8,97.8,15.9,97.3,15.9L97.3,15.9z"/>
</g>
<g>
	
		<linearGradient id="SVGID_00000145052318995414988960000012991704473615070093_" gradientUnits="userSpaceOnUse" x1="103.6539" y1="376.31" x2="111.5923" y2="376.31" gradientTransform="matrix(1 0 0 1 0 -364)">
		<stop  offset="0" style="stop-color:#FFFFFF"/>
		<stop  offset="0" style="stop-color:#DEF3FF"/>
		<stop  offset="0" style="stop-color:#B0E2FF"/>
		<stop  offset="0" style="stop-color:#86D2FF"/>
		<stop  offset="0" style="stop-color:#62C4FF"/>
		<stop  offset="0" style="stop-color:#43B9FF"/>
		<stop  offset="0" style="stop-color:#2BB0FF"/>
		<stop  offset="0" style="stop-color:#17A9FF"/>
		<stop  offset="0" style="stop-color:#0AA4FF"/>
		<stop  offset="0" style="stop-color:#02A1FF"/>
		<stop  offset="0" style="stop-color:#00A0FF"/>
	</linearGradient>
	
		<path style="fill:url(#SVGID_00000145052318995414988960000012991704473615070093_);stroke:#009FFE;stroke-width:0.6;stroke-miterlimit:10;" d="
		M107.6,17.1c-1.3,0-2.3-0.4-3-1c-0.7-0.7-1-1.7-1-3.1V8.2c0-0.2,0.1-0.4,0.1-0.5c0.1-0.1,0.2-0.2,0.4-0.2c0.2,0,0.3,0.1,0.4,0.2
		c0.1,0.1,0.2,0.3,0.2,0.5v4.7c0,1,0.2,1.8,0.7,2.3c0.5,0.5,1.2,0.8,2.1,0.8c0.9,0,1.6-0.3,2.1-0.8c0.5-0.5,0.7-1.3,0.7-2.3V8.2
		c0-0.2,0-0.3,0.1-0.5c0.1-0.1,0.2-0.2,0.4-0.2c0,0,0,0,0,0c0.2,0,0.3,0.1,0.4,0.2c0.1,0.1,0.2,0.3,0.1,0.4v4.7c0,1.4-0.3,2.4-1,3.1
		C109.9,16.7,108.9,17.1,107.6,17.1L107.6,17.1z"/>
	<path class="st1" d="M104.2,7.7c0.2,0,0.3,0,0.4,0.1c0.1,0.1,0.1,0.2,0.1,0.4v4.7c0,1,0.2,1.8,0.7,2.4c0.5,0.5,1.2,0.8,2.2,0.8
		c0.9,0,1.7-0.3,2.2-0.8c0.5-0.5,0.7-1.3,0.7-2.4V8.2v0v0c0-0.1,0-0.3,0.1-0.4c0.1-0.1,0.2-0.1,0.3-0.1c0,0,0,0,0,0h0h0
		c0.2,0,0.3,0,0.4,0.1c0.1,0.1,0.1,0.2,0.1,0.4v0v0v4.7c0,1.3-0.3,2.4-1,3c-0.6,0.7-1.6,1-2.9,1c-1.3,0-2.3-0.3-2.9-1
		c-0.7-0.7-1-1.7-1-3V8.2c0-0.2,0-0.3,0.1-0.4C103.9,7.7,104.1,7.7,104.2,7.7 M104.2,7.5c-0.2,0-0.4,0.1-0.5,0.2
		c-0.1,0.1-0.2,0.3-0.2,0.5v4.7c0,1.4,0.3,2.5,1,3.2c0.7,0.7,1.7,1.1,3,1.1c1.3,0,2.3-0.4,3-1.1c0.7-0.7,1-1.8,1-3.2V8.2
		c0-0.2-0.1-0.4-0.2-0.5c-0.1-0.1-0.3-0.2-0.5-0.2c0,0,0,0,0,0c-0.2,0-0.3,0.1-0.4,0.2c-0.1,0.1-0.2,0.3-0.2,0.5v4.7
		c0,1-0.2,1.7-0.7,2.3c-0.5,0.5-1.1,0.8-2,0.8c-0.9,0-1.6-0.3-2.1-0.8c-0.5-0.5-0.7-1.3-0.7-2.3V8.2c0-0.2-0.1-0.4-0.2-0.5
		C104.6,7.5,104.4,7.5,104.2,7.5L104.2,7.5z"/>
</g>
<g>
	
		<linearGradient id="SVGID_00000034792576178120727050000015149791623493080981_" gradientUnits="userSpaceOnUse" x1="113.461" y1="376.3164" x2="121.3417" y2="376.3164" gradientTransform="matrix(1 0 0 1 0 -364)">
		<stop  offset="0" style="stop-color:#FFFFFF"/>
		<stop  offset="0" style="stop-color:#DEF3FF"/>
		<stop  offset="0" style="stop-color:#B0E2FF"/>
		<stop  offset="0" style="stop-color:#86D2FF"/>
		<stop  offset="0" style="stop-color:#62C4FF"/>
		<stop  offset="0" style="stop-color:#43B9FF"/>
		<stop  offset="0" style="stop-color:#2BB0FF"/>
		<stop  offset="0" style="stop-color:#17A9FF"/>
		<stop  offset="0" style="stop-color:#0AA4FF"/>
		<stop  offset="0" style="stop-color:#02A1FF"/>
		<stop  offset="0" style="stop-color:#00A0FF"/>
	</linearGradient>
	
		<path style="fill:url(#SVGID_00000034792576178120727050000015149791623493080981_);stroke:#009FFE;stroke-width:0.6;stroke-miterlimit:10;" d="
		M114,17c-0.2,0-0.3-0.1-0.4-0.2c-0.1-0.1-0.2-0.3-0.2-0.5V8.3c0-0.2,0.1-0.4,0.2-0.5c0.1-0.1,0.3-0.2,0.4-0.2c0,0,0,0,0,0h4.1
		c1,0,1.8,0.2,2.3,0.7c0.5,0.5,0.8,1.1,0.8,2c0,0.8-0.2,1.4-0.6,1.9s-0.9,0.8-1.6,0.9l-0.1,0v0.1l2.2,2.7c0.1,0.1,0.2,0.3,0.2,0.4
		c0,0.2-0.1,0.3-0.2,0.4c-0.1,0.1-0.2,0.2-0.4,0.2c0,0,0,0,0,0c-0.2,0-0.4-0.1-0.5-0.3l0,0l-2.7-3.4h-3v3.1c0,0.2-0.1,0.4-0.1,0.5
		C114.4,16.9,114.2,17,114,17z M114.6,12.2h3.5c0.6,0,1.1-0.1,1.5-0.4c0.3-0.3,0.5-0.7,0.5-1.3c0-0.6-0.2-1-0.5-1.3
		c-0.3-0.3-0.8-0.4-1.5-0.4h-3.5L114.6,12.2L114.6,12.2z"/>
	<path class="st1" d="M114.1,7.7C114.1,7.7,114.1,7.7,114.1,7.7L114.1,7.7L114.1,7.7h4.2c1,0,1.7,0.2,2.2,0.7c0.5,0.4,0.7,1.1,0.7,2
		c0,0.7-0.2,1.4-0.5,1.8s-0.9,0.7-1.6,0.8l-0.1,0v0.2v0v0.1l0,0.1l2.2,2.6c0.1,0.1,0.1,0.2,0.1,0.4v0v0c0,0.1,0,0.3-0.1,0.4
		c-0.1,0.1-0.2,0.1-0.3,0.1c0,0,0,0,0,0h0h0c-0.2,0-0.4-0.1-0.4-0.2l0,0l0,0l-2.6-3.4l-0.1-0.1h-0.1h-2.8h-0.2v0.2v3
		c0,0.2,0,0.3-0.1,0.4c-0.1,0.1-0.2,0.1-0.4,0.1c-0.2,0-0.3,0-0.4-0.1c-0.1-0.1-0.1-0.2-0.1-0.4V8.3c0-0.2,0-0.3,0.1-0.4
		C113.8,7.8,113.9,7.7,114.1,7.7 M114.5,12.3h0.2h3.4c0.7,0,1.2-0.2,1.5-0.5c0.4-0.3,0.5-0.8,0.5-1.4c0-0.6-0.2-1.1-0.5-1.4
		c-0.4-0.3-0.9-0.5-1.5-0.5h-3.4h-0.2v0.2v3.4V12.3 M114.1,7.6c-0.2,0-0.4,0.1-0.5,0.2c-0.1,0.1-0.2,0.3-0.2,0.5v8.1
		c0,0.2,0.1,0.4,0.2,0.5s0.3,0.2,0.5,0.2s0.4-0.1,0.5-0.2c0.1-0.1,0.2-0.3,0.2-0.5v-3h2.8l2.6,3.4c0.1,0.2,0.4,0.3,0.6,0.3
		c0,0,0,0,0,0s0,0,0,0c0.2,0,0.3-0.1,0.4-0.2c0.1-0.1,0.2-0.3,0.2-0.5c0-0.2-0.1-0.4-0.2-0.5l-2.2-2.6v0c0.7-0.1,1.3-0.4,1.7-0.9
		c0.4-0.5,0.6-1.1,0.6-1.9c0-0.9-0.3-1.6-0.8-2.1c-0.5-0.5-1.3-0.7-2.3-0.7L114.1,7.6C114.1,7.6,114.1,7.6,114.1,7.6L114.1,7.6z
		 M114.7,12.1V8.8h3.4c0.6,0,1.1,0.1,1.4,0.4s0.5,0.7,0.5,1.3c0,0.6-0.2,1-0.5,1.2c-0.3,0.3-0.8,0.4-1.4,0.4L114.7,12.1L114.7,12.1z
		"/>
</g>
<g>
	
		<linearGradient id="SVGID_00000112614165708997159310000013132489064130395779_" gradientUnits="userSpaceOnUse" x1="12.7283" y1="387.5574" x2="12.7283" y2="365.4659" gradientTransform="matrix(1 0 0 1 0 -364)">
		<stop  offset="0" style="stop-color:#FFFFFF"/>
		<stop  offset="3.000000e-02" style="stop-color:#DEF3FF"/>
		<stop  offset="9.000000e-02" style="stop-color:#B0E2FF"/>
		<stop  offset="0.15" style="stop-color:#86D2FF"/>
		<stop  offset="0.21" style="stop-color:#62C4FF"/>
		<stop  offset="0.28" style="stop-color:#43B9FF"/>
		<stop  offset="0.36" style="stop-color:#2BB0FF"/>
		<stop  offset="0.44" style="stop-color:#17A9FF"/>
		<stop  offset="0.54" style="stop-color:#0AA4FF"/>
		<stop  offset="0.66" style="stop-color:#02A1FF"/>
		<stop  offset="0.9" style="stop-color:#00A0FF"/>
	</linearGradient>
	<path style="fill:url(#SVGID_00000112614165708997159310000013132489064130395779_);" d="M13.2,23.5c0.4-0.4,0.8-0.8,1-1.3
		c0.4-0.6,0.6-1.2,0.5-1.9c0-0.6-0.2-1.1-0.4-1.7c-0.3-0.7-0.7-1.3-1.4-2.1c-0.8-0.9-1.6-1.7-2.5-2.5l-0.2-0.2
		c-0.9-0.9-1.7-1.7-2.5-2.5c-0.7-0.7-1.2-1.3-1.6-2C6,8.9,5.7,8.4,5.5,7.8c-0.2-1,0-1.9,0.6-2.7C6.5,4.6,7,4.2,7.6,3.7
		c0.9-0.6,1.9-1.1,3.1-1.6c0.4-0.2,0.9-0.3,1.3-0.5c0.1,0,0.2-0.1,0.3-0.1c-0.5,0.5-0.9,0.9-1.2,1.4c-0.6,1-0.6,2.1-0.2,3.2
		c0.3,0.7,0.7,1.4,1.3,2.1c0.7,0.8,1.4,1.6,2.2,2.3c0.2,0.2,0.5,0.5,0.7,0.7c0.6,0.6,1.2,1.2,1.8,1.7c0.7,0.7,1.6,1.6,2.2,2.6
		c0.4,0.6,0.6,1.2,0.8,1.7c0.2,0.9,0,1.7-0.5,2.5c-0.4,0.5-0.9,1-1.6,1.5c-0.9,0.6-1.9,1.1-3.1,1.7c-0.4,0.2-0.9,0.3-1.3,0.5
		C13.3,23.5,13.2,23.5,13.2,23.5C13.2,23.5,13.2,23.5,13.2,23.5z"/>
	<path class="st12" d="M12,1.7c-0.4,0.4-0.7,0.8-0.9,1.2c-0.6,1-0.6,2.1-0.2,3.3c0.3,0.7,0.7,1.4,1.3,2.1c0.7,0.8,1.4,1.6,2.2,2.3
		c0.2,0.2,0.5,0.5,0.7,0.7c0.6,0.6,1.2,1.2,1.8,1.7c0.7,0.7,1.6,1.6,2.2,2.6c0.4,0.6,0.6,1.1,0.8,1.7c0.2,0.9,0,1.7-0.5,2.4
		c-0.4,0.5-0.9,1-1.5,1.5c-0.9,0.6-1.9,1.1-3.1,1.6c-0.4,0.2-0.8,0.3-1.2,0.5c0.3-0.3,0.6-0.7,0.8-1.1c0.4-0.6,0.6-1.3,0.6-1.9
		c0-0.6-0.2-1.2-0.4-1.7c-0.3-0.7-0.8-1.4-1.4-2.1c-0.8-0.9-1.6-1.7-2.5-2.5l-0.2-0.2c-0.9-0.9-1.7-1.7-2.5-2.5
		c-0.7-0.7-1.2-1.3-1.6-1.9C6.1,8.9,5.8,8.4,5.6,7.8c-0.2-1,0-1.8,0.6-2.7c0.4-0.5,0.8-0.9,1.5-1.4c0.9-0.6,1.8-1.1,3.1-1.6
		C11.2,2,11.6,1.9,12,1.7 M12.7,1.3C12.6,1.3,12.6,1.3,12.7,1.3c-0.7,0.2-1.3,0.5-2,0.7C9.6,2.4,8.6,3,7.6,3.6C7,4,6.5,4.5,6.1,5
		C5.4,5.9,5.2,6.8,5.4,7.9c0.1,0.6,0.4,1.1,0.7,1.5c0.4,0.7,1,1.4,1.6,2c0.8,0.8,1.7,1.7,2.5,2.5c0.9,0.9,1.9,1.8,2.7,2.8
		c0.5,0.6,1,1.3,1.4,2.1c0.2,0.5,0.4,1.1,0.4,1.6c0,0.7-0.2,1.3-0.5,1.8c-0.3,0.5-0.6,0.9-1,1.3c-0.1,0.1-0.3,0.2-0.4,0.4l0,0
		c0,0,0.1,0,0.1,0c0.6-0.2,1.3-0.5,1.9-0.7c1.1-0.5,2.2-1,3.1-1.7c0.6-0.4,1.1-0.9,1.6-1.5c0.6-0.8,0.8-1.6,0.6-2.6
		c-0.1-0.6-0.4-1.2-0.8-1.8c-0.6-1-1.4-1.8-2.3-2.6c-0.8-0.8-1.7-1.6-2.5-2.4C13.7,9.7,13,9,12.3,8.1c-0.5-0.6-1-1.3-1.3-2.1
		C10.6,5,10.7,4,11.2,3C11.6,2.3,12.1,1.8,12.7,1.3C12.6,1.3,12.6,1.3,12.7,1.3C12.7,1.3,12.7,1.3,12.7,1.3L12.7,1.3z"/>
</g>
<g>
	
		<linearGradient id="SVGID_00000083056812833527196770000015493723974699681469_" gradientUnits="userSpaceOnUse" x1="16.6366" y1="370.5807" x2="16.6366" y2="364.0894" gradientTransform="matrix(1 0 0 1 0 -364)">
		<stop  offset="0" style="stop-color:#FFFFFF"/>
		<stop  offset="3.000000e-02" style="stop-color:#DEF3FF"/>
		<stop  offset="9.000000e-02" style="stop-color:#B0E2FF"/>
		<stop  offset="0.15" style="stop-color:#86D2FF"/>
		<stop  offset="0.21" style="stop-color:#62C4FF"/>
		<stop  offset="0.28" style="stop-color:#43B9FF"/>
		<stop  offset="0.36" style="stop-color:#2BB0FF"/>
		<stop  offset="0.44" style="stop-color:#17A9FF"/>
		<stop  offset="0.54" style="stop-color:#0AA4FF"/>
		<stop  offset="0.66" style="stop-color:#02A1FF"/>
		<stop  offset="0.9" style="stop-color:#00A0FF"/>
	</linearGradient>
	<path style="fill:url(#SVGID_00000083056812833527196770000015493723974699681469_);" d="M12.6,6.5C12.2,6,12,5.4,11.9,4.8
		c-0.1-0.5,0-1.1,0.3-1.6c0.3-0.6,0.7-1.2,1.2-1.6c0.6-0.5,1.3-0.8,2.2-1c0.8-0.2,1.7-0.3,2.5-0.4c0.4,0,0.8,0,1.1,0
		c0.7,0,1.4,0,2.1,0.1c-0.1,0-0.2,0-0.3,0.1c-2,0.4-3.6,1-5,1.8c-0.9,0.5-1.6,1.1-2.1,1.7C13.3,4.6,12.8,5.5,12.6,6.5
		C12.6,6.6,12.6,6.6,12.6,6.5z"/>
	<path class="st12" d="M19.3,0.2c0.5,0,1,0,1.5,0c-1.9,0.4-3.4,1-4.7,1.7c-0.9,0.5-1.6,1.1-2.2,1.8c-0.7,0.7-1.1,1.6-1.3,2.6
		c-0.3-0.5-0.5-1-0.6-1.6c-0.1-0.5,0-1,0.2-1.6c0.3-0.6,0.7-1.2,1.2-1.6c0.6-0.4,1.3-0.8,2.2-1c0.8-0.2,1.7-0.3,2.5-0.4
		C18.5,0.2,18.9,0.2,19.3,0.2L19.3,0.2 M19.3,0c-0.4,0-0.8,0-1.2,0c-0.9,0-1.7,0.2-2.5,0.4c-0.8,0.2-1.6,0.5-2.2,1.1
		c-0.6,0.4-1,1-1.3,1.6c-0.2,0.5-0.3,1.1-0.3,1.7c0.1,0.7,0.4,1.3,0.7,1.8c0,0.1,0.1,0.1,0.2,0.2c0.1-1.1,0.6-2.1,1.3-3
		c0.6-0.7,1.3-1.3,2.1-1.7c1.5-0.9,3.2-1.4,5-1.8c0.3-0.1,0.6-0.1,1-0.2c-0.2,0-0.4-0.1-0.6-0.1C20.8,0,20,0,19.3,0L19.3,0z"/>
</g>
<g>
	
		<linearGradient id="SVGID_00000055708332920560993580000004784929555201169305_" gradientUnits="userSpaceOnUse" x1="8.9066" y1="388.7865" x2="8.9066" y2="382.2826" gradientTransform="matrix(1 0 0 1 0 -364)">
		<stop  offset="0" style="stop-color:#FFFFFF"/>
		<stop  offset="3.000000e-02" style="stop-color:#DEF3FF"/>
		<stop  offset="9.000000e-02" style="stop-color:#B0E2FF"/>
		<stop  offset="0.15" style="stop-color:#86D2FF"/>
		<stop  offset="0.21" style="stop-color:#62C4FF"/>
		<stop  offset="0.28" style="stop-color:#43B9FF"/>
		<stop  offset="0.36" style="stop-color:#2BB0FF"/>
		<stop  offset="0.44" style="stop-color:#17A9FF"/>
		<stop  offset="0.54" style="stop-color:#0AA4FF"/>
		<stop  offset="0.66" style="stop-color:#02A1FF"/>
		<stop  offset="0.9" style="stop-color:#00A0FF"/>
	</linearGradient>
	<path style="fill:url(#SVGID_00000055708332920560993580000004784929555201169305_);" d="M6.4,24.8c-0.3,0-0.7,0-1.1,0
		c-0.4,0-0.8-0.1-1.2-0.1c0.1,0,0.2,0,0.3-0.1c1.9-0.4,3.5-1,4.9-1.7c1-0.6,1.8-1.2,2.4-1.9c0.6-0.8,1-1.7,1.2-2.7
		c0.4,0.6,0.6,1.2,0.7,1.8c0.1,0.5,0,1.1-0.3,1.7c-0.4,0.9-1,1.5-2,2c-0.7,0.4-1.5,0.6-2.4,0.8C8.2,24.7,7.3,24.8,6.4,24.8z"/>
	<path class="st12" d="M12.9,18.5c0.3,0.5,0.5,1,0.6,1.5c0.1,0.5,0,1.1-0.3,1.6c-0.4,0.8-1,1.5-1.9,2c-0.7,0.4-1.4,0.6-2.4,0.8
		c-0.8,0.1-1.6,0.2-2.5,0.2c-0.3,0-0.7,0-1.1,0c-0.2,0-0.3,0-0.5,0c1.8-0.4,3.2-0.9,4.5-1.7c1-0.6,1.8-1.2,2.4-2
		C12.3,20.3,12.8,19.4,12.9,18.5 M12.8,18.1C12.8,18.1,12.8,18.1,12.8,18.1c-0.1,1-0.6,2-1.2,2.8c-0.6,0.8-1.5,1.4-2.3,1.9
		c-1.5,0.9-3.2,1.4-4.9,1.7c-0.3,0.1-0.6,0.1-1,0.2c0,0,0,0,0.1,0c0,0,0,0,0,0c0.6,0,1.2,0.1,1.8,0.1c0.4,0,0.7,0,1.1,0
		c0.9,0,1.7-0.1,2.6-0.2c0.9-0.1,1.7-0.4,2.5-0.8c0.9-0.5,1.6-1.1,2-2.1c0.2-0.6,0.4-1.1,0.3-1.7C13.6,19.3,13.3,18.7,12.8,18.1
		C12.9,18.1,12.8,18.1,12.8,18.1L12.8,18.1z"/>
</g>
</svg>
